<svg width="12" height="13" viewBox="0 0 12 13" fill="none" xmlns="http://www.w3.org/2000/svg">
    <path d="M2.02 1h1.485c.377 0 .79.165 1.145.407.282.344.434.692.434 1.053v1.486c0 .432-.143.81-.42 1.046-.358.307-.722.473-1.1.473H2.08c-.39 0-.791-.174-1.059-.434-.3-.354-.46-.714-.46-1.085V2.46c0-.38.168-.733.447-1.012C1.287 1.168 1.64 1 2.02 1zM8.495 1H9.98c.367 0 .723.156 1.085.406.283.344.435.693.435 1.054v1.545c0 .39-.175.792-.435 1.059-.354.3-.713.46-1.085.46H8.495c-.432 0-.81-.143-1.046-.419-.308-.359-.474-.723-.474-1.1V2.52c0-.39.175-.792.435-1.06.354-.299.713-.46 1.085-.46zM2.02 7.416h1.485c.39 0 .792.175 1.059.434.3.355.46.714.46 1.086v1.485c0 .39-.174.792-.434 1.059-.354.3-.713.46-1.085.46H2.02c-.39 0-.792-.174-1.06-.434-.299-.354-.46-.713-.46-1.085V8.936c0-.39.175-.792.435-1.06.354-.299.713-.46 1.085-.46zM8.495 7.416H9.98c.367 0 .721.157 1.071.449.292.35.449.704.449 1.07v1.486c0 .39-.175.792-.435 1.059-.354.3-.713.46-1.085.46H8.495c-.39 0-.792-.174-1.06-.434-.299-.354-.46-.713-.46-1.085V8.936c0-.39.175-.792.435-1.06.354-.299.713-.46 1.085-.46z" stroke="#67686C" stroke-miterlimit="10" stroke-linejoin="round"/>
</svg>
