<svg xmlns="http://www.w3.org/2000/svg" width="32" height="28" viewBox="0 0 32 28"><path fill="#FFF" d="M22.758 15A2.251 2.251 0 0 1 25 17.256v3.488A2.251 2.251 0 0 1 22.758 23h-4.516A2.251 2.251 0 0 1 16 20.744v-3.488A2.251 2.251 0 0 1 18.242 15h4.516zm.612 5.744v-3.488a.615.615 0 0 0-.612-.615h-4.516a.615.615 0 0 0-.612.615v3.488c0 .335.272.615.612.615h4.516a.615.615 0 0 0 .612-.615zM32 9.174a4.613 4.613 0 0 1-2.76 4.22.347.347 0 0 1 .007.085v13.735a.788.788 0 0 1-.784.786H3.53a.788.788 0 0 1-.785-.786V13.38A4.6 4.6 0 0 1 0 9.174c0-.138.04-.269.105-.387L4.858.4a.775.775 0 0 1 .68-.4h20.917c.281 0 .543.157.68.4l4.76 8.387a.731.731 0 0 1 .105.387zM5.996 1.579L2.282 8.14h27.436l-3.72-6.56H5.996zm16.778 8.126h-5.937a3.016 3.016 0 0 0 5.937 0zm-7.604 0H9.226a3.028 3.028 0 0 0 2.975 2.49 3.016 3.016 0 0 0 2.969-2.49zm-13.548 0a3.01 3.01 0 0 0 2.968 2.49 3.023 3.023 0 0 0 2.975-2.49H1.622zm11.56 16.722h.006v-8.486c0-.622-.503-1.12-1.118-1.12H9.788a1.12 1.12 0 0 0-1.118 1.12v8.486h4.512zm14.496 0v-12.66c-.092 0-.177.007-.268.007a4.582 4.582 0 0 1-3.806-2.031 4.57 4.57 0 0 1-3.799 2.03 4.579 4.579 0 0 1-3.798-2.03 4.59 4.59 0 0 1-3.806 2.03 4.582 4.582 0 0 1-3.805-2.03 4.582 4.582 0 0 1-3.806 2.03c-.091 0-.183 0-.275-.006v12.667h2.78V17.94a2.694 2.694 0 0 1 2.687-2.693h2.282a2.694 2.694 0 0 1 2.687 2.693v8.486h12.927zm-.268-14.226a3.034 3.034 0 0 0 2.975-2.49h-5.944a3.016 3.016 0 0 0 2.969 2.49z"/></svg>