<svg xmlns="http://www.w3.org/2000/svg" width="28" height="28" viewBox="0 0 28 28"><g fill="#FFF"><path d="M26.882 8.547c-1.476-3.443-3.984-5.948-7.455-7.429A13.755 13.755 0 0 0 13.977 0c-1.898 0-3.702.374-5.435 1.118-3.441 1.477-5.96 3.98-7.44 7.43A13.638 13.638 0 0 0 0 13.984c0 1.9.361 3.725 1.102 5.453 1.48 3.449 4 5.967 7.44 7.444A13.613 13.613 0 0 0 13.977 28a13.76 13.76 0 0 0 5.45-1.118c3.47-1.48 5.979-4 7.455-7.444A13.708 13.708 0 0 0 28 13.985c0-1.9-.374-3.704-1.118-5.438zm-2.234 11.626a12.286 12.286 0 0 1-4.501 4.488c-1.885 1.1-3.95 1.654-6.17 1.654a11.85 11.85 0 0 1-4.776-.98c-1.516-.659-2.825-1.524-3.92-2.62-1.094-1.095-1.965-2.417-2.617-3.936a12.065 12.065 0 0 1-.964-4.794c0-2.221.545-4.277 1.638-6.158A12.292 12.292 0 0 1 7.823 3.34c1.883-1.103 3.934-1.654 6.154-1.654 2.22 0 4.285.555 6.17 1.654a12.323 12.323 0 0 1 4.5 4.488c1.102 1.884 1.653 3.937 1.653 6.158 0 2.22-.547 4.29-1.652 6.188z"/><path d="M13.628 12.775V5.134c0-.457-.426-.826-.914-.826-.458 0-.868.369-.868.826v7.76c0 .014.032.073.032.117a.742.742 0 0 0 .236.665l4.716 4.41c.316.295.9.295 1.215 0 .362-.339.338-.831 0-1.15l-4.417-4.16z"/></g></svg>