<svg width="50" height="50" viewBox="0 0 50 50" fill="none" xmlns="http://www.w3.org/2000/svg">
    <rect width="50" height="50" rx="8" fill="#fff"/>
    <rect x=".25" y=".25" width="49.5" height="49.5" rx="7.75" stroke="#F10F5A" stroke-opacity=".5" stroke-width=".5"/>
    <path d="M37.9 8H12C9.8 8 8 6.47 8 4.601V0h34v4.601C42 6.471 40.1 8 37.9 8z" fill="#F54282"/>
    <path d="M17.418 2.508h-1.284v-.792h3.51v.792H18.36V6h-.942V2.508zm4.502.162-.558 1.698h1.098l-.54-1.698zM19.874 6l1.542-4.32h1.02L23.966 6h-.978l-.276-.888h-1.596L20.822 6h-.948zm2.082-4.686c-.628 0-.966-.292-1.014-.876h.396c.028.18.122.302.282.366a.79.79 0 0 0 .336.06c.136 0 .246-.02.33-.06a.439.439 0 0 0 .282-.366h.396c-.048.584-.384.876-1.008.876zm-.414 5.646v-.696h.762v.696h-.762zm2.926-5.244h.936l1.788 2.874h.012V1.716h.883V6h-.942l-1.782-2.868h-.012V6h-.883V1.716zm7.544 3.798c-.3.388-.692.582-1.176.582-.644 0-1.156-.21-1.536-.63-.38-.42-.57-.95-.57-1.59 0-.652.19-1.192.57-1.62.38-.428.892-.642 1.536-.642.464 0 .868.136 1.212.408.348.268.546.636.594 1.104h-.9c-.056-.236-.164-.414-.324-.534a.906.906 0 0 0-.582-.186c-.268 0-.492.072-.672.216a1.18 1.18 0 0 0-.384.54c-.072.212-.108.45-.108.714 0 .4.096.74.288 1.02.192.276.484.414.876.414.624 0 .964-.308 1.02-.924h-.948v-.702h1.8V6h-.6l-.096-.486z" fill="#fff"/>
</svg>
