<svg xmlns="http://www.w3.org/2000/svg" width="40" height="40" viewBox="0 0 40 40"><defs><linearGradient id="a" x1="9.154%" x2="90.846%" y1="90.847%" y2="9.153%"><stop offset="0%" stop-color="#FFC107"/><stop offset="50.7%" stop-color="#F44336"/><stop offset="99%" stop-color="#9C27B0"/></linearGradient><linearGradient id="b" x1="14.646%" x2="85.354%" y1="85.354%" y2="14.646%"><stop offset="0%" stop-color="#FFC107"/><stop offset="50.7%" stop-color="#F44336"/><stop offset="99%" stop-color="#9C27B0"/></linearGradient><linearGradient id="c" x1="14.648%" x2="85.352%" y1="85.361%" y2="14.648%"><stop offset="0%" stop-color="#FFC107"/><stop offset="50.7%" stop-color="#F44336"/><stop offset="99%" stop-color="#9C27B0"/></linearGradient></defs><g fill="none"><path fill="url(#a)" d="M27.5 0h-15C5.598 0 0 5.598 0 12.5v15C0 34.403 5.598 40 12.5 40h15C34.403 40 40 34.403 40 27.5v-15C40 5.598 34.403 0 27.5 0zm8.75 27.5c0 4.825-3.925 8.75-8.75 8.75h-15c-4.825 0-8.75-3.925-8.75-8.75v-15c0-4.825 3.925-8.75 8.75-8.75h15c4.825 0 8.75 3.925 8.75 8.75v15z"/><path fill="url(#b)" d="M20 10c-5.523 0-10 4.477-10 10s4.477 10 10 10 10-4.477 10-10-4.477-10-10-10zm0 16.25A6.259 6.259 0 0 1 13.75 20 6.257 6.257 0 0 1 20 13.75 6.257 6.257 0 0 1 26.25 20 6.259 6.259 0 0 1 20 26.25z"/><circle cx="30.5" cy="9.5" r="1.5" fill="url(#c)"/></g></svg>