<svg width="12" height="13" viewBox="0 0 12 13" fill="none" xmlns="http://www.w3.org/2000/svg">
    <g clip-path="url(#a)" fill="#555">
        <path d="M6 3.5a2 2 0 1 0 0 4 2 2 0 0 0 0-4zm0 3a1 1 0 1 1 0-2 1 1 0 0 1 0 2z"/>
        <path d="M6 12.5a2.636 2.636 0 0 1-2.155-1.1C1.939 8.771.973 6.795.973 5.526a5.028 5.028 0 0 1 10.055 0c0 1.27-.967 3.245-2.872 5.874A2.636 2.636 0 0 1 6 12.5zM6 1.59a3.942 3.942 0 0 0-3.937 3.937c0 1.005.947 2.864 2.665 5.234a1.572 1.572 0 0 0 2.545 0C8.99 8.39 9.937 6.532 9.937 5.527A3.942 3.942 0 0 0 6 1.59z"/>
        <path fill-rule="evenodd" clip-rule="evenodd" d="M1 12a.5.5 0 0 1 .5-.5h9a.5.5 0 0 1 0 1h-9A.5.5 0 0 1 1 12z"/>
    </g>
    <defs>
        <clipPath id="a">
            <path fill="#fff" transform="translate(0 .5)" d="M0 0h12v12H0z"/>
        </clipPath>
    </defs>
</svg>
