<svg width="34" height="22" viewBox="0 0 34 22" fill="none" xmlns="http://www.w3.org/2000/svg">
    <g clip-path="url(#raezkmrada)">
        <path d="m6.346 18.497-.009-.001a5.878 5.878 0 0 1-2.658-1.18c-.644-.746-1.068-1.544-1.153-2.397-.067-.667.07-1.351.347-2.014l5.48 5.478c-.659.185-1.364.243-2.007.114z" stroke="#67686C" stroke-miterlimit="10" stroke-linejoin="round"/>
        <path d="m9.242 1.782.01-.006C10.86.736 12.652.357 14.454.547c1.794.189 3.396.942 4.722 2.267 1.221 1.222 1.982 2.827 2.27 4.44.187 1.712-.102 3.503-.941 5l-4.617 7.527-.002.004c-.283.47-.633.893-1.034 1.134-.439.264-.98.446-1.533.539-.494.082-1.01.004-1.568-.182-.538-.18-.97-.443-1.312-.784L1.5 11.551c-.342-.34-.605-.774-.784-1.312C.529 9.681.45 9.165.533 8.671a.5.5 0 0 0 .006-.082c0-.471.15-.866.494-1.295a.5.5 0 0 0 .038-.055c.28-.465.62-.876 1.1-1.116a.498.498 0 0 0 .039-.021l7.032-4.32z" stroke="#67686C" stroke-miterlimit="10" stroke-linejoin="round"/>
   </g> 
</svg>
