<svg width="15" height="14" viewBox="0 0 15 14" fill="none" xmlns="http://www.w3.org/2000/svg">
    <path d="m10.696 2.271.011.013.012.012c.901.91 1.45 1.917 1.67 3.025a6.272 6.272 0 0 1-.335 3.485c-.44 1.11-1.212 2.006-2.222 2.686A5.827 5.827 0 0 1 6.5 12.5c-1.546 0-3.105-.671-4.219-1.796l-.01-.01-.009-.008C1.17 9.693.5 8.13.5 6.561c0-1.24.333-2.36 1-3.37.663-1.003 1.664-1.79 2.78-2.241C5.392.5 6.498.387 7.73.612c1.114.226 2.21.787 2.966 1.66z" stroke="#67686C" stroke-miterlimit="10"/>
    <path d="m11.171 10.795 2.787 2.598" stroke="#67686C" stroke-miterlimit="10" stroke-linecap="round"/>
</svg>
