<svg width="24" height="24" viewBox="0 0 24 24" fill="none" xmlns="http://www.w3.org/2000/svg">
    <path d="m17.85 9.056-.008.018-.007.018c-.41 1.126-1.23 2.149-2.243 2.756-1.063.638-2.203 1.046-3.427 1.046-1.658 0-3.195-.62-4.321-1.848l-.015-.016-.016-.014C6.585 9.89 5.966 8.352 5.966 6.694c0-1.25.31-2.375 1.026-3.398.74-1.057 1.669-1.87 2.776-2.273l.018-.006.018-.008c1.126-.512 2.36-.617 3.5-.41L13.31.6a5.969 5.969 0 0 1 3.18 1.636c.849.958 1.455 1.988 1.657 3.2l.003.02.005.02c.308 1.234.205 2.457-.305 3.579z" stroke="#555" stroke-miterlimit="10"/>
    <path d="M23 23c0-2.133-1.222-4.178-3.178-5.689C17.744 15.8 14.933 15 12 15s-5.744.889-7.822 2.311C2.222 18.822 1 20.867 1 23" stroke="#555" stroke-miterlimit="10" stroke-linecap="round"/>
</svg>
