<svg xmlns="http://www.w3.org/2000/svg" width="40" height="40" viewBox="0 0 40 40"><g fill="none"><path fill="#C4302B" d="M19.953 0c11.02 0 19.954 8.934 19.954 19.953 0 11.02-8.933 19.954-19.954 19.954C8.933 39.907 0 30.973 0 19.953 0 8.934 8.933 0 19.953 0z"/><path fill="#FFF" d="M19.472 16.213c.63 0 1.125-.2 1.486-.486.36-.287.54-.677.54-1.179v-3.025c0-.445-.184-.813-.55-1.096-.367-.283-.838-.424-1.414-.424-.63 0-1.133.133-1.506.401-.374.27-.561.629-.561 1.084v3.035c0 .5.182.893.546 1.189.364.296.852.501 1.459.501zm-.66-4.578c0-.114.06-.207.179-.28a.9.9 0 0 1 .464-.106c.207 0 .374.035.5.106.127.073.19.166.19.28v2.876a.38.38 0 0 1-.188.336c-.124.08-.292.12-.502.12-.206 0-.366-.038-.477-.12a.39.39 0 0 1-.166-.336v-2.876zm4.835 4.575c.222 0 .448-.128.682-.255.237-.13.463-.32.68-.566v.672h1.179V9.994h-1.179V14.6a1.7 1.7 0 0 1-.363.325c-.133.085-.243.129-.329.129-.11 0-.192-.032-.24-.098-.05-.063-.077-.167-.077-.309V9.995h-1.176v5.07c0 .361.071.632.207.812.139.18.343.333.616.333zm3.427 2.508H12.832c-2.264 0-4.099 1.764-4.099 3.938v3.33c0 2.175 1.835 3.94 4.1 3.94h14.241c2.264 0 4.1-1.765 4.1-3.94v-3.33c0-2.174-1.836-3.938-4.1-3.938zm-12.123 3.38h-1.26v5.214h-1.218v-5.215h-1.26v-.89h3.738v.89zm3.759 5.287h-1.313v-.541c-.245.2-.495.352-.76.455-.26.107-.515.158-.762.158-.304 0-.53-.073-.685-.222-.153-.146-.231-.365-.231-.658v-4.118h1.313v3.777c0 .118.027.2.08.252.057.054.148.077.27.077.095 0 .22-.033.367-.103.149-.069.285-.156.408-.264v-3.74h1.313v4.927zm4.97-.938c0 .323-.102.569-.305.742-.2.173-.497.258-.88.258a2.14 2.14 0 0 1-.68-.098 1.71 1.71 0 0 1-.555-.31v.35h-1.31v-6.181h1.31V23.2c.177-.138.363-.245.556-.317.199-.074.398-.109.6-.109.41 0 .722.096.938.29.218.194.327.48.327.853v2.53zm4.997-1.39h-2.42v.89c0 .248.04.42.124.517.085.096.228.144.429.144.212 0 .357-.041.441-.122.083-.083.128-.261.128-.54v-.215h1.3v.242c0 .484-.156.848-.477 1.094-.317.244-.791.366-1.42.366-.568 0-1.015-.13-1.34-.389-.324-.257-.489-.616-.489-1.07v-2.122c0-.408.18-.745.539-1.003.358-.257.817-.385 1.384-.385.579 0 1.024.12 1.336.358.31.238.465.582.465 1.029v1.205zm-14.432-8.83h1.488v-3.625l1.732-5.113h-1.512l-.92 3.494h-.095l-.966-3.494h-1.5l1.773 5.276v3.462zm7.558 7.27l-.276.045-.268.139v2.84c.105.074.208.13.308.162l.313.048c.16 0 .276-.031.35-.097.074-.064.113-.168.113-.312v-2.356c0-.155-.044-.271-.136-.35-.095-.078-.228-.118-.404-.118z"/><path fill="#FFF" d="M26.88 23.29c-.202 0-.346.043-.434.13-.088.084-.13.226-.13.424v.477h1.119v-.477c0-.198-.047-.339-.134-.424-.086-.087-.23-.13-.421-.13z"/></g></svg>